<?xml version="1.0" encoding="utf-8"?>
<!-- Generator: Adobe Illustrator 15.0.0, SVG Export Plug-In . SVG Version: 6.00 Build 0)  -->
<!DOCTYPE svg PUBLIC "-//W3C//DTD SVG 1.1//EN" "http://www.w3.org/Graphics/SVG/1.1/DTD/svg11.dtd" [
	<!ENTITY ns_extend "http://ns.adobe.com/Extensibility/1.0/">
	<!ENTITY ns_ai "http://ns.adobe.com/AdobeIllustrator/10.0/">
	<!ENTITY ns_graphs "http://ns.adobe.com/Graphs/1.0/">
	<!ENTITY ns_vars "http://ns.adobe.com/Variables/1.0/">
	<!ENTITY ns_imrep "http://ns.adobe.com/ImageReplacement/1.0/">
	<!ENTITY ns_sfw "http://ns.adobe.com/SaveForWeb/1.0/">
	<!ENTITY ns_custom "http://ns.adobe.com/GenericCustomNamespace/1.0/">
	<!ENTITY ns_adobe_xpath "http://ns.adobe.com/XPath/1.0/">
]>
<svg version="1.1" id="Ebene_1" xmlns:x="&ns_extend;" xmlns:i="&ns_ai;" xmlns:graph="&ns_graphs;"
	 xmlns="http://www.w3.org/2000/svg" xmlns:xlink="http://www.w3.org/1999/xlink" x="0px" y="0px" width="115.465px"
	 height="115.537px" viewBox="0 0 115.465 115.537" enable-background="new 0 0 115.465 115.537" xml:space="preserve">
<metadata>
	<sfw  xmlns="&ns_sfw;">
		<slices></slices>
		<sliceSourceBounds  x="143.495" y="124.729" width="63.01" height="61.768" bottomLeftOrigin="true"></sliceSourceBounds>
	</sfw>
</metadata>
<g>
	<path fill="#333333" d="M89.695,48.006c-0.069-0.423-0.328-0.837-0.716-1.234c-3.127,3.178-15.71,3.703-30.753,3.703
		s-27.614-0.525-30.754-3.703c-0.387,0.397-0.627,0.811-0.715,1.234h-0.03l0.009,0.229c0,0.026-0.009,0.053-0.009,0.08
		c0,0.062,0.018,0.117,0.027,0.175l2.448,50.169h0.006c0.218,3.934,4.721,9.88,29.019,9.88c24.3,0,28.807-5.946,29.019-9.88h0.018
		l2.451-50.169c0.005-0.059,0.023-0.114,0.023-0.175c0-0.027-0.019-0.054-0.019-0.08l0.019-0.229H89.695z"/>
</g>
</svg>
